# xmcd
#
# Track frame offsets:
# 150
# 13207
# 24935
# 41635
# 54075
# 67590
# 79552
# 92747
# 107412
# 122957
#
# Disc length: 1794 seconds
#
#
# Revision: 1
# Processed by: cddbd v1.5.2PL0 Copyright (c) Steve Scherf et al.
# Submitted via: FreeRIP 2.945 
#
DISCID=6b07000a
DTITLE=Originales de San Juan - Naci Con Suerte De Rey
DYEAR=1999
DGENRE=Norte_o
TTITLE0=El Crudo
TTITLE1=Naci con suerte de Rey
TTITLE2=Sangre de Traficante
TTITLE3=Masacre en Guadalajara
TTITLE4=El gato de Oaxaca
TTITLE5=El encabronado
TTITLE6=Nariz de 45
TTITLE7=El lechero
TTITLE8=El Guero
TTITLE9=El Marihuanero
EXTD=
EXTT0=
EXTT1=
EXTT2=
EXTT3=
EXTT4=
EXTT5=
EXTT6=
EXTT7=
EXTT8=
EXTT9=
PLAYORDER=
